<svg id="visual" viewBox="0 0 1920 1080" width="1920" height="1080" xmlns="http://www.w3.org/2000/svg" xmlns:xlink="http://www.w3.org/1999/xlink" version="1.1"><path d="M1669 1080L1785 540L1727 0L1920 0L1920 540L1920 1080Z" fill="#b0edcc"></path><path d="M1343 1080L1228 540L1362 0L1728 0L1786 540L1670 1080Z" fill="#c4f2d8"></path><path d="M1189 1080L978 540L1228 0L1363 0L1229 540L1344 1080Z" fill="#d8f6e5"></path><path d="M537 1080L421 540L210 0L1229 0L979 540L1190 1080Z" fill="#ecfbf2"></path><path d="M0 1080L0 540L0 0L211 0L422 540L538 1080Z" fill="#ffffff"></path></svg>